# xmcd
#
# Track frame offsets: 
#        150
#        16641
#        32997
#        52050
#        71074
#        87030
#        105936
#        122801
#        139523
#        156211
#        171957
#        187389
#        206252
#        226576
#        243236
#        261869
#        279416
#        306822
#
# Disc length: 4316 seconds
#
# Revision: 0
# Processed by: cddbd v1.5.2PL0 Copyright (c) Steve Scherf et al.
# Submitted via: ExactAudioCopy v1.2
#
DISCID=ef10da12
DTITLE=Charlie Landsborough - My Heart Would Know and Heart And Soul, CD
DTITLE=1
DYEAR=2010
DGENRE=Country
TTITLE0=Always
TTITLE1=24 Hours Times Two
TTITLE2=My Heart Would Know
TTITLE3=I Am Red
TTITLE4=You'll Cast A Mighty Long Shadow
TTITLE5=I Know What It Is To Be Loved
TTITLE6=Maggie
TTITLE7=The Closest Thing To My Heart
TTITLE8=The Long And Winding Road
TTITLE9=Going My Own Sweet Way
TTITLE10=Ugly Bug Ball
TTITLE11=Moate
TTITLE12=He Still Holds You
TTITLE13=Nothing Will Ever Be The Same Again
TTITLE14=Like A Stone
TTITLE15=I'll Be Missing You
TTITLE16=[Beatles Medley] I Feel Fine, Love Me Do, From Me To You, Let
TTITLE16=It Be
TTITLE17=When You're Not A Dream
EXTD=
EXTT0=
EXTT1=
EXTT2=
EXTT3=
EXTT4=
EXTT5=
EXTT6=
EXTT7=
EXTT8=
EXTT9=
EXTT10=
EXTT11=
EXTT12=
EXTT13=
EXTT14=
EXTT15=
EXTT16=
EXTT17=
PLAYORDER=
